<mxfile host="65bd71144e">
    <diagram id="q-Un3dO3R4x38Tj4W52o" name="構成図">
        <mxGraphModel dx="3386" dy="2206" grid="1" gridSize="10" guides="1" tooltips="1" connect="1" arrows="1" fold="1" page="1" pageScale="1" pageWidth="1169" pageHeight="827" math="0" shadow="0">
            <root>
                <mxCell id="0"/>
                <mxCell id="1" parent="0"/>
                <mxCell id="fOEvviLvVWvWSow8_xro-1" value="AWS Cloud" style="points=[[0,0],[0.25,0],[0.5,0],[0.75,0],[1,0],[1,0.25],[1,0.5],[1,0.75],[1,1],[0.75,1],[0.5,1],[0.25,1],[0,1],[0,0.75],[0,0.5],[0,0.25]];outlineConnect=0;gradientColor=none;html=1;whiteSpace=wrap;fontSize=12;fontStyle=0;container=1;pointerEvents=0;collapsible=0;recursiveResize=0;shape=mxgraph.aws4.group;grIcon=mxgraph.aws4.group_aws_cloud_alt;strokeColor=#232F3E;fillColor=none;verticalAlign=top;align=left;spacingLeft=30;fontColor=#232F3E;dashed=0;" vertex="1" parent="1">
                    <mxGeometry x="80" y="160" width="880" height="600" as="geometry"/>
                </mxCell>
                <mxCell id="fOEvviLvVWvWSow8_xro-4" value="ap-northeast-1(Tokyo)" style="points=[[0,0],[0.25,0],[0.5,0],[0.75,0],[1,0],[1,0.25],[1,0.5],[1,0.75],[1,1],[0.75,1],[0.5,1],[0.25,1],[0,1],[0,0.75],[0,0.5],[0,0.25]];outlineConnect=0;gradientColor=none;html=1;whiteSpace=wrap;fontSize=12;fontStyle=0;container=1;pointerEvents=0;collapsible=0;recursiveResize=0;shape=mxgraph.aws4.group;grIcon=mxgraph.aws4.group_region;strokeColor=#00A4A6;fillColor=none;verticalAlign=top;align=left;spacingLeft=30;fontColor=#147EBA;dashed=1;" vertex="1" parent="fOEvviLvVWvWSow8_xro-1">
                    <mxGeometry x="40" y="40" width="800" height="520" as="geometry"/>
                </mxCell>
                <mxCell id="fOEvviLvVWvWSow8_xro-5" value="aws-study-vpc 10.0.0.0/16" style="points=[[0,0],[0.25,0],[0.5,0],[0.75,0],[1,0],[1,0.25],[1,0.5],[1,0.75],[1,1],[0.75,1],[0.5,1],[0.25,1],[0,1],[0,0.75],[0,0.5],[0,0.25]];outlineConnect=0;gradientColor=none;html=1;whiteSpace=wrap;fontSize=12;fontStyle=0;container=1;pointerEvents=0;collapsible=0;recursiveResize=0;shape=mxgraph.aws4.group;grIcon=mxgraph.aws4.group_vpc2;strokeColor=#8C4FFF;fillColor=none;verticalAlign=top;align=left;spacingLeft=30;fontColor=#AAB7B8;dashed=0;" vertex="1" parent="fOEvviLvVWvWSow8_xro-4">
                    <mxGeometry x="40" y="80" width="720" height="360" as="geometry"/>
                </mxCell>
                <mxCell id="fOEvviLvVWvWSow8_xro-8" value="Availability Zone a" style="fillColor=none;strokeColor=#147EBA;dashed=1;verticalAlign=top;fontStyle=0;fontColor=#147EBA;whiteSpace=wrap;html=1;" vertex="1" parent="fOEvviLvVWvWSow8_xro-5">
                    <mxGeometry x="40" y="-40" width="310" height="440" as="geometry"/>
                </mxCell>
                <mxCell id="fOEvviLvVWvWSow8_xro-9" value="aws-study Public subnet-1a 10.0.0.0/20" style="points=[[0,0],[0.25,0],[0.5,0],[0.75,0],[1,0],[1,0.25],[1,0.5],[1,0.75],[1,1],[0.75,1],[0.5,1],[0.25,1],[0,1],[0,0.75],[0,0.5],[0,0.25]];outlineConnect=0;gradientColor=none;html=1;whiteSpace=wrap;fontSize=12;fontStyle=0;container=1;pointerEvents=0;collapsible=0;recursiveResize=0;shape=mxgraph.aws4.group;grIcon=mxgraph.aws4.group_security_group;grStroke=0;strokeColor=#7AA116;fillColor=#F2F6E8;verticalAlign=top;align=left;spacingLeft=30;fontColor=#248814;dashed=0;" vertex="1" parent="fOEvviLvVWvWSow8_xro-5">
                    <mxGeometry x="80" y="40" width="240" height="120" as="geometry"/>
                </mxCell>
                <mxCell id="iMe-15nR2G2ZmfNN1JmE-7" value="Amazon EC2" style="sketch=0;points=[[0,0,0],[0.25,0,0],[0.5,0,0],[0.75,0,0],[1,0,0],[0,1,0],[0.25,1,0],[0.5,1,0],[0.75,1,0],[1,1,0],[0,0.25,0],[0,0.5,0],[0,0.75,0],[1,0.25,0],[1,0.5,0],[1,0.75,0]];outlineConnect=0;fontColor=#232F3E;fillColor=#ED7100;strokeColor=#ffffff;dashed=0;verticalLabelPosition=bottom;verticalAlign=top;align=center;html=1;fontSize=12;fontStyle=0;aspect=fixed;shape=mxgraph.aws4.resourceIcon;resIcon=mxgraph.aws4.ec2;" vertex="1" parent="fOEvviLvVWvWSow8_xro-9">
                    <mxGeometry x="95" y="43" width="50" height="50" as="geometry"/>
                </mxCell>
                <mxCell id="fOEvviLvVWvWSow8_xro-17" value="aws-study Private subnet-1a 10.0.128.0/20" style="points=[[0,0],[0.25,0],[0.5,0],[0.75,0],[1,0],[1,0.25],[1,0.5],[1,0.75],[1,1],[0.75,1],[0.5,1],[0.25,1],[0,1],[0,0.75],[0,0.5],[0,0.25]];outlineConnect=0;gradientColor=none;html=1;whiteSpace=wrap;fontSize=12;fontStyle=0;container=1;pointerEvents=0;collapsible=0;recursiveResize=0;shape=mxgraph.aws4.group;grIcon=mxgraph.aws4.group_security_group;grStroke=0;strokeColor=#00A4A6;fillColor=#E6F6F7;verticalAlign=top;align=left;spacingLeft=30;fontColor=#147EBA;dashed=0;" vertex="1" parent="fOEvviLvVWvWSow8_xro-5">
                    <mxGeometry x="80" y="200" width="240" height="120" as="geometry"/>
                </mxCell>
                <mxCell id="iMe-15nR2G2ZmfNN1JmE-8" value="Amazon RDS" style="sketch=0;points=[[0,0,0],[0.25,0,0],[0.5,0,0],[0.75,0,0],[1,0,0],[0,1,0],[0.25,1,0],[0.5,1,0],[0.75,1,0],[1,1,0],[0,0.25,0],[0,0.5,0],[0,0.75,0],[1,0.25,0],[1,0.5,0],[1,0.75,0]];outlineConnect=0;fontColor=#232F3E;fillColor=#C925D1;strokeColor=#ffffff;dashed=0;verticalLabelPosition=bottom;verticalAlign=top;align=center;html=1;fontSize=12;fontStyle=0;aspect=fixed;shape=mxgraph.aws4.resourceIcon;resIcon=mxgraph.aws4.rds;" vertex="1" parent="fOEvviLvVWvWSow8_xro-17">
                    <mxGeometry x="95" y="40" width="50" height="50" as="geometry"/>
                </mxCell>
                <mxCell id="NsWvFkqhI_Q1HSzJDOLT-5" value="" style="edgeStyle=none;html=1;" edge="1" parent="fOEvviLvVWvWSow8_xro-5" source="iMe-15nR2G2ZmfNN1JmE-7" target="iMe-15nR2G2ZmfNN1JmE-8">
                    <mxGeometry relative="1" as="geometry"/>
                </mxCell>
                <mxCell id="fOEvviLvVWvWSow8_xro-6" value="Availability Zone b" style="fillColor=none;strokeColor=#147EBA;dashed=1;verticalAlign=top;fontStyle=0;fontColor=#147EBA;whiteSpace=wrap;html=1;" vertex="1" parent="fOEvviLvVWvWSow8_xro-4">
                    <mxGeometry x="410" y="40" width="310" height="440" as="geometry"/>
                </mxCell>
                <mxCell id="fOEvviLvVWvWSow8_xro-16" value="&lt;span style=&quot;color: rgb(36, 136, 20);&quot;&gt;aws-study Public subnet-1c 10.0.16.0/20&lt;/span&gt;" style="points=[[0,0],[0.25,0],[0.5,0],[0.75,0],[1,0],[1,0.25],[1,0.5],[1,0.75],[1,1],[0.75,1],[0.5,1],[0.25,1],[0,1],[0,0.75],[0,0.5],[0,0.25]];outlineConnect=0;gradientColor=none;html=1;whiteSpace=wrap;fontSize=12;fontStyle=0;container=1;pointerEvents=0;collapsible=0;recursiveResize=0;shape=mxgraph.aws4.group;grIcon=mxgraph.aws4.group_security_group;grStroke=0;strokeColor=#7AA116;fillColor=#F2F6E8;verticalAlign=top;align=left;spacingLeft=30;fontColor=#248814;dashed=0;" vertex="1" parent="fOEvviLvVWvWSow8_xro-4">
                    <mxGeometry x="440" y="120" width="240" height="120" as="geometry"/>
                </mxCell>
                <mxCell id="fOEvviLvVWvWSow8_xro-26" value="&lt;span style=&quot;color: rgb(20, 126, 186);&quot;&gt;aws-study Private subnet-1c 10.0.144.0/20&lt;/span&gt;" style="points=[[0,0],[0.25,0],[0.5,0],[0.75,0],[1,0],[1,0.25],[1,0.5],[1,0.75],[1,1],[0.75,1],[0.5,1],[0.25,1],[0,1],[0,0.75],[0,0.5],[0,0.25]];outlineConnect=0;gradientColor=none;html=1;whiteSpace=wrap;fontSize=12;fontStyle=0;container=1;pointerEvents=0;collapsible=0;recursiveResize=0;shape=mxgraph.aws4.group;grIcon=mxgraph.aws4.group_security_group;grStroke=0;strokeColor=#00A4A6;fillColor=#E6F6F7;verticalAlign=top;align=left;spacingLeft=30;fontColor=#147EBA;dashed=0;" vertex="1" parent="fOEvviLvVWvWSow8_xro-4">
                    <mxGeometry x="440" y="280" width="240" height="120" as="geometry"/>
                </mxCell>
                <mxCell id="iMe-15nR2G2ZmfNN1JmE-9" value="Application Load&lt;div&gt;Balancer&lt;/div&gt;" style="sketch=0;outlineConnect=0;fontColor=#232F3E;gradientColor=none;fillColor=#8C4FFF;strokeColor=none;dashed=0;verticalLabelPosition=bottom;verticalAlign=top;align=center;html=1;fontSize=12;fontStyle=0;aspect=fixed;pointerEvents=1;shape=mxgraph.aws4.application_load_balancer;" vertex="1" parent="fOEvviLvVWvWSow8_xro-4">
                    <mxGeometry x="375" y="163" width="50" height="50" as="geometry"/>
                </mxCell>
                <mxCell id="NsWvFkqhI_Q1HSzJDOLT-12" value="" style="edgeStyle=none;html=1;" edge="1" parent="fOEvviLvVWvWSow8_xro-4" source="iMe-15nR2G2ZmfNN1JmE-10" target="iMe-15nR2G2ZmfNN1JmE-9">
                    <mxGeometry relative="1" as="geometry"/>
                </mxCell>
                <mxCell id="NsWvFkqhI_Q1HSzJDOLT-6" value="" style="edgeStyle=none;html=1;" edge="1" parent="fOEvviLvVWvWSow8_xro-4" source="iMe-15nR2G2ZmfNN1JmE-9" target="iMe-15nR2G2ZmfNN1JmE-7">
                    <mxGeometry relative="1" as="geometry"/>
                </mxCell>
                <mxCell id="iMe-15nR2G2ZmfNN1JmE-10" value="Internet Gateway" style="sketch=0;outlineConnect=0;fontColor=#232F3E;gradientColor=none;fillColor=#8C4FFF;strokeColor=none;dashed=0;verticalLabelPosition=bottom;verticalAlign=top;align=center;html=1;fontSize=12;fontStyle=0;aspect=fixed;pointerEvents=1;shape=mxgraph.aws4.internet_gateway;" vertex="1" parent="fOEvviLvVWvWSow8_xro-4">
                    <mxGeometry x="375" y="50" width="50" height="50" as="geometry"/>
                </mxCell>
                <mxCell id="NsWvFkqhI_Q1HSzJDOLT-11" style="edgeStyle=none;html=1;" edge="1" parent="1" source="iMe-15nR2G2ZmfNN1JmE-11" target="iMe-15nR2G2ZmfNN1JmE-10">
                    <mxGeometry relative="1" as="geometry">
                        <mxPoint x="460" y="65" as="targetPoint"/>
                        <Array as="points">
                            <mxPoint x="520" y="105"/>
                        </Array>
                    </mxGeometry>
                </mxCell>
                <mxCell id="iMe-15nR2G2ZmfNN1JmE-11" value="Internet" style="sketch=0;outlineConnect=0;fontColor=#232F3E;gradientColor=none;strokeColor=#232F3E;fillColor=#ffffff;dashed=0;verticalLabelPosition=bottom;verticalAlign=top;align=center;html=1;fontSize=12;fontStyle=0;aspect=fixed;shape=mxgraph.aws4.resourceIcon;resIcon=mxgraph.aws4.internet;" vertex="1" parent="1">
                    <mxGeometry x="1000" y="80" width="50" height="50" as="geometry"/>
                </mxCell>
                <mxCell id="NsWvFkqhI_Q1HSzJDOLT-14" style="edgeStyle=none;html=1;" edge="1" parent="1" source="NsWvFkqhI_Q1HSzJDOLT-13" target="iMe-15nR2G2ZmfNN1JmE-11">
                    <mxGeometry relative="1" as="geometry"/>
                </mxCell>
                <mxCell id="NsWvFkqhI_Q1HSzJDOLT-13" value="Users" style="sketch=0;outlineConnect=0;fontColor=#232F3E;gradientColor=none;fillColor=#232F3D;strokeColor=none;dashed=0;verticalLabelPosition=bottom;verticalAlign=top;align=center;html=1;fontSize=12;fontStyle=0;aspect=fixed;pointerEvents=1;shape=mxgraph.aws4.users;" vertex="1" parent="1">
                    <mxGeometry x="1000" y="435" width="50" height="50" as="geometry"/>
                </mxCell>
            </root>
        </mxGraphModel>
    </diagram>
    <diagram id="in1Zroe6WVqP2Q2ql38l" name="素材">
        <mxGraphModel dx="1552" dy="858" grid="1" gridSize="10" guides="1" tooltips="1" connect="1" arrows="1" fold="1" page="1" pageScale="1" pageWidth="827" pageHeight="1169" math="0" shadow="0">
            <root>
                <mxCell id="0"/>
                <mxCell id="1" parent="0"/>
                <mxCell id="QnnOhZQ-ussMAWjXgIBm-1" value="EC2" style="sketch=0;points=[[0,0,0],[0.25,0,0],[0.5,0,0],[0.75,0,0],[1,0,0],[0,1,0],[0.25,1,0],[0.5,1,0],[0.75,1,0],[1,1,0],[0,0.25,0],[0,0.5,0],[0,0.75,0],[1,0.25,0],[1,0.5,0],[1,0.75,0]];outlineConnect=0;fontColor=#232F3E;fillColor=#ED7100;strokeColor=#ffffff;dashed=0;verticalLabelPosition=bottom;verticalAlign=top;align=center;html=1;fontSize=12;fontStyle=0;aspect=fixed;shape=mxgraph.aws4.resourceIcon;resIcon=mxgraph.aws4.ec2;" vertex="1" parent="1">
                    <mxGeometry x="480" y="680" width="78" height="78" as="geometry"/>
                </mxCell>
                <mxCell id="QnnOhZQ-ussMAWjXgIBm-2" value="RDS" style="sketch=0;points=[[0,0,0],[0.25,0,0],[0.5,0,0],[0.75,0,0],[1,0,0],[0,1,0],[0.25,1,0],[0.5,1,0],[0.75,1,0],[1,1,0],[0,0.25,0],[0,0.5,0],[0,0.75,0],[1,0.25,0],[1,0.5,0],[1,0.75,0]];outlineConnect=0;fontColor=#232F3E;fillColor=#C925D1;strokeColor=#ffffff;dashed=0;verticalLabelPosition=bottom;verticalAlign=top;align=center;html=1;fontSize=12;fontStyle=0;aspect=fixed;shape=mxgraph.aws4.resourceIcon;resIcon=mxgraph.aws4.rds;" vertex="1" parent="1">
                    <mxGeometry x="360" y="680" width="78" height="78" as="geometry"/>
                </mxCell>
                <mxCell id="QnnOhZQ-ussMAWjXgIBm-3" value="Application Load&lt;div&gt;Balancer&lt;/div&gt;" style="sketch=0;outlineConnect=0;fontColor=#232F3E;gradientColor=none;fillColor=#8C4FFF;strokeColor=none;dashed=0;verticalLabelPosition=bottom;verticalAlign=top;align=center;html=1;fontSize=12;fontStyle=0;aspect=fixed;pointerEvents=1;shape=mxgraph.aws4.application_load_balancer;" vertex="1" parent="1">
                    <mxGeometry x="240" y="680" width="78" height="78" as="geometry"/>
                </mxCell>
                <mxCell id="QnnOhZQ-ussMAWjXgIBm-5" value="Internet Gateway" style="sketch=0;outlineConnect=0;fontColor=#232F3E;gradientColor=none;fillColor=#8C4FFF;strokeColor=none;dashed=0;verticalLabelPosition=bottom;verticalAlign=top;align=center;html=1;fontSize=12;fontStyle=0;aspect=fixed;pointerEvents=1;shape=mxgraph.aws4.internet_gateway;" vertex="1" parent="1">
                    <mxGeometry x="120" y="680" width="78" height="78" as="geometry"/>
                </mxCell>
                <mxCell id="QnnOhZQ-ussMAWjXgIBm-6" value="Internet" style="sketch=0;outlineConnect=0;fontColor=#232F3E;gradientColor=none;strokeColor=#232F3E;fillColor=#ffffff;dashed=0;verticalLabelPosition=bottom;verticalAlign=top;align=center;html=1;fontSize=12;fontStyle=0;aspect=fixed;shape=mxgraph.aws4.resourceIcon;resIcon=mxgraph.aws4.internet;" vertex="1" parent="1">
                    <mxGeometry x="118" y="560" width="80" height="80" as="geometry"/>
                </mxCell>
                <mxCell id="QnnOhZQ-ussMAWjXgIBm-7" value="Client" style="sketch=0;outlineConnect=0;fontColor=#232F3E;gradientColor=none;fillColor=#232F3D;strokeColor=none;dashed=0;verticalLabelPosition=bottom;verticalAlign=top;align=center;html=1;fontSize=12;fontStyle=0;aspect=fixed;pointerEvents=1;shape=mxgraph.aws4.client;" vertex="1" parent="1">
                    <mxGeometry x="240" y="562" width="78" height="76" as="geometry"/>
                </mxCell>
                <mxCell id="grDU0qcd3X5MPrkwT9e0-1" value="Amazon S3" style="sketch=0;points=[[0,0,0],[0.25,0,0],[0.5,0,0],[0.75,0,0],[1,0,0],[0,1,0],[0.25,1,0],[0.5,1,0],[0.75,1,0],[1,1,0],[0,0.25,0],[0,0.5,0],[0,0.75,0],[1,0.25,0],[1,0.5,0],[1,0.75,0]];outlineConnect=0;fontColor=#232F3E;fillColor=#7AA116;strokeColor=#ffffff;dashed=0;verticalLabelPosition=bottom;verticalAlign=top;align=center;html=1;fontSize=12;fontStyle=0;aspect=fixed;shape=mxgraph.aws4.resourceIcon;resIcon=mxgraph.aws4.s3;" vertex="1" parent="1">
                    <mxGeometry x="360" y="560" width="78" height="78" as="geometry"/>
                </mxCell>
            </root>
        </mxGraphModel>
    </diagram>
</mxfile>